# xmcd
#
# Track frame offsets: 
#        150
#        10643
#        22850
#        32769
#        45346
#        55853
#        66593
#        77406
#        88197
#        98304
#        112273
#        122295
#        133691
#        145795
#        158419
#        170916
#        182579
#        194295
#        204380
#        217149
#        231434
#        244184
#        256864
#        268564
#        282461
#        294429
#        307058
#        316137
#        327847
#        339114
#
# Disc length: 4683 seconds
#
# Revision: 0
# Processed by: cddbd v1.5.2PL0 Copyright (c) Steve Scherf et al.
# Submitted via: ExactAudioCopyFreeDBPlugin 1.0
#
DISCID=a212491e
DTITLE=Reed Jimmy - Rockin' With Reed (Bonus Track Version)
DYEAR=1900
DGENRE=Blues
TTITLE0=Going To New York
TTITLE1=A String To Your Heart
TTITLE2=Ends and Odds
TTITLE3=Caress Me Baby
TTITLE4=Take Out Some Insurance
TTITLE5=The Moon Is Rising
TTITLE6=Down In Virginia
TTITLE7=I Know It's A Sin
TTITLE8=Wanna Be Loved
TTITLE9=Baby, What's On Your Mind
TTITLE10=My Bitter Seed
TTITLE11=Rockin' With Reed
TTITLE12=Honest, I Do
TTITLE13=Go On To School
TTITLE14=My First Plea
TTITLE15=Boogie In The Dark
TTITLE16=You Got Me Crying
TTITLE17=Ain't That Lovin' You Baby
TTITLE18=You Got Me Dizzy
TTITLE19=Little Rain
TTITLE20=Can't Stand To See You Go
TTITLE21=Roll And Rhumba
TTITLE22=You're Something Else
TTITLE23=You Don't Have To Go
TTITLE24=Bright Lights, Big City (Bonus Track)
TTITLE25=Big Boss Man (Bonus Track)
TTITLE26=I'm A Love You (Bonus Track)
TTITLE27=Honey, Where You Going? (Bonus Track)
TTITLE28=Hush Hush (Bonus Track)
TTITLE29=I Don't Go For That (Bonus Track)
EXTD=
EXTT0=
EXTT1=
EXTT2=
EXTT3=
EXTT4=
EXTT5=
EXTT6=
EXTT7=
EXTT8=
EXTT9=
EXTT10=
EXTT11=
EXTT12=
EXTT13=
EXTT14=
EXTT15=
EXTT16=
EXTT17=
EXTT18=
EXTT19=
EXTT20=
EXTT21=
EXTT22=
EXTT23=
EXTT24=
EXTT25=
EXTT26=
EXTT27=
EXTT28=
EXTT29=
PLAYORDER=
